<?xml version="1.0" encoding="UTF-8"?>
<svg id="Layer_1" data-name="Layer 1" xmlns="http://www.w3.org/2000/svg" viewBox="0 0 1080 1080">
  <defs>
    <style>
      .cls-1 {
        fill: #4c4c4c;
      }

      .cls-2 {
        fill: #ecf57e;
      }
    </style>
  </defs>
  <rect class="cls-2" width="1080" height="1080"/>
  <g>
    <path class="cls-1" d="M665.09,560.7c-11.29,2.84-22.89,4.02-34.46,3.54,17.68,59.06,3.25,125.76-43.31,172.32-67.49,67.49-177.31,67.49-244.81,0s-67.49-177.31,0-244.81c46.69-46.69,113.62-61.06,172.8-43.15-.44-11.57.77-23.17,3.64-34.46-69.27-18.59-146.36-.81-200.61,53.44-80.82,80.82-80.82,212.33,0,293.15,80.82,80.82,212.33,80.82,293.15,0,54.1-54.1,71.93-130.91,53.6-200.03Z"/>
    <path class="cls-1" d="M679.27,344.92h0c-6.67-6.67-5.26-18.91,3.15-27.32l51.58-51.58c8.42-8.42,20.65-9.83,27.32-3.15h0c6.67,6.67,5.26,18.91-3.15,27.32l-51.58,51.58c-8.42,8.42-20.65,9.83-27.32,3.15Z"/>
    <path class="cls-1" d="M736.01,401.66h0c-6.67-6.67-5.26-18.91,3.15-27.32l51.58-51.58c8.42-8.42,20.65-9.83,27.32-3.15h0c6.67,6.67,5.26,18.91-3.15,27.32l-51.58,51.58c-8.42,8.42-20.65,9.83-27.32,3.15Z"/>
    <path class="cls-1" d="M549.79,546.18l18.27-18.27c13.63-13.63,33.29-18.56,52.1-14.38,25.06,5.56,52.53-2.47,70.52-24.17,21.29-25.68,21.69-63.67.88-89.74-27-33.82-76.66-35.86-106.4-6.13-17.62,17.62-24.05,42.21-19.33,64.96,3.97,19.17-1.18,39.08-15.02,52.93l-18.76,18.76c-13.59,13.59-33.16,18.58-51.95,14.57-24.97-5.34-52.25,2.79-70.1,24.44-21.18,25.68-21.53,63.57-.76,89.59,27,33.82,76.66,35.87,106.4,6.13,17.73-17.73,24.12-42.52,19.24-65.37-4.12-19.29.98-39.37,14.93-53.32Z"/>
    <path class="cls-1" d="M622.58,580.85c40.06,3.8,81.47-9.86,111.75-41.01,52.43-53.95,51.3-141.61-2.45-194.24-53.74-52.62-140.27-52.28-193.58,1.03-30.17,30.17-43.35,70.97-39.59,110.44,1.12,11.71-8.81,21.51-20.52,20.41-40.07-3.79-81.48,9.88-111.76,41.04-52.42,53.95-51.28,141.6,2.46,194.22,53.74,52.62,140.27,52.28,193.58-1.03,30.17-30.17,43.35-70.97,39.58-110.45-1.12-11.71,8.81-21.52,20.53-20.41ZM384.11,678.69c-30.25-37.87-29.67-92.83,1.27-130.13,24.79-29.88,62.03-41.9,96.86-36.11,10.28,1.71,20.72-1.92,28.09-9.29l.72-.72,12.6-12.6.72-.72c7.37-7.37,11-17.81,9.29-28.09-5.79-34.83,6.23-72.07,36.11-96.86,37.3-30.94,92.26-31.52,130.13-1.27,49,39.14,51.95,111.11,8.86,154.2-24.65,24.65-58.76,34.22-90.76,28.73-10.49-1.8-21.19,1.65-28.72,9.18h0s-13.07,13.07-13.07,13.07h0c-7.53,7.53-10.98,18.23-9.18,28.72,5.49,32-4.08,66.1-28.73,90.76-43.09,43.09-115.06,40.14-154.2-8.86Z"/>
  </g>
</svg>